<svg xmlns="http://www.w3.org/2000/svg" xmlns:xlink="http://www.w3.org/1999/xlink" width="500" zoomAndPan="magnify" viewBox="0 0 375 374.999991" height="500" preserveAspectRatio="xMidYMid meet" version="1.0"><defs><g/><clipPath id="cac0048e59"><path d="M 78.203125 316.515625 L 117 316.515625 L 117 355.046875 L 78.203125 355.046875 Z M 78.203125 316.515625 " clip-rule="nonzero"/></clipPath><clipPath id="25e17050e9"><path d="M 323.902344 128.144531 L 362.398438 128.144531 L 362.398438 166.722656 L 323.902344 166.722656 Z M 323.902344 128.144531 " clip-rule="nonzero"/></clipPath><clipPath id="7ccab1814a"><path d="M 166 19.800781 L 205 19.800781 L 205 59 L 166 59 Z M 166 19.800781 " clip-rule="nonzero"/></clipPath></defs><g fill="#333333" fill-opacity="1"><g transform="translate(155.827251, 203.850067)"><g><path d="M 16.046875 -17.03125 L 19.484375 -17.03125 L 19.484375 0 L 15.859375 0 L 15.859375 -11.25 L 11.796875 -5.546875 L 8.890625 -5.546875 L 4.78125 -11.078125 L 4.78125 0 L 1.125 0 L 1.125 -17.03125 L 4.59375 -17.03125 L 10.359375 -9.1875 Z M 16.046875 -17.03125 "/></g></g></g><g fill="#333333" fill-opacity="1"><g transform="translate(177.574746, 203.850067)"><g><path d="M 1.15625 -17.03125 L 11.796875 -17.03125 L 11.796875 -13.71875 L 4.8125 -13.71875 L 4.8125 -10.640625 L 10.953125 -10.640625 L 10.953125 -7.328125 L 4.8125 -7.328125 L 4.8125 -3.296875 L 11.796875 -3.296875 L 11.796875 0 L 1.15625 0 Z M 1.15625 -17.03125 "/></g></g></g><g fill="#333333" fill-opacity="1"><g transform="translate(191.65665, 203.850067)"><g><path d="M 1.15625 -17.03125 L 11.796875 -17.03125 L 11.796875 -13.71875 L 4.8125 -13.71875 L 4.8125 -10.640625 L 10.953125 -10.640625 L 10.953125 -7.328125 L 4.8125 -7.328125 L 4.8125 -3.296875 L 11.796875 -3.296875 L 11.796875 0 L 1.15625 0 Z M 1.15625 -17.03125 "/></g></g></g><g fill="#333333" fill-opacity="1"><g transform="translate(205.738556, 203.850067)"><g><path d="M 0.546875 -17.03125 L 12.875 -17.03125 L 12.875 -13.71875 L 8.53125 -13.71875 L 8.53125 0 L 4.90625 0 L 4.90625 -13.71875 L 0.546875 -13.71875 Z M 0.546875 -17.03125 "/></g></g></g><path fill="#80cc28" d="M 56.335938 150.621094 C 66.0625 158.359375 74.335938 170.808594 74.335938 170.808594 C 66.175781 169.386719 54.914062 171.539062 48.285156 173.140625 C 46.808594 180.160156 46.296875 187.144531 46.8125 194.054688 C 49.785156 233.875 108.953125 217.953125 108.953125 217.953125 C 89.421875 215.421875 80.855469 207.703125 77.40625 203.128906 C 76.363281 201.746094 77.453125 199.761719 79.179688 199.914062 C 117.136719 203.28125 150.679688 220.417969 150.679688 220.417969 C 147.089844 188.316406 131.9375 170.3125 118.195312 160.425781 C 102.058594 148.8125 98.121094 126.507812 108.804688 109.738281 C 120.398438 91.542969 134.339844 74.863281 134.339844 74.863281 C 95.777344 98.644531 69.472656 124.574219 56.335938 150.621094 " fill-opacity="1" fill-rule="nonzero"/><path fill="#80cc28" d="M 52.109375 161.363281 C 55.386719 151.265625 49.863281 140.425781 39.773438 137.144531 C 29.6875 133.863281 18.847656 139.386719 15.570312 149.484375 C 12.292969 159.578125 17.8125 170.421875 27.902344 173.703125 C 37.992188 176.980469 48.828125 171.457031 52.109375 161.363281 " fill-opacity="1" fill-rule="nonzero"/><path fill="#ed1c24" d="M 99.96875 312.9375 C 110.328125 306.070312 124.71875 302.046875 124.71875 302.046875 C 120.847656 309.371094 119.414062 320.75 118.882812 327.558594 C 125.101562 331.128906 131.582031 333.773438 138.308594 335.417969 C 177.078125 344.898438 180.230469 283.675781 180.230469 283.675781 C 171.792969 301.476562 161.804688 307.246094 156.390625 309.113281 C 154.753906 309.679688 153.207031 308.027344 153.882812 306.433594 C 168.8125 271.355469 195.46875 244.730469 195.46875 244.730469 C 163.84375 238.230469 142.050781 247.085938 128.402344 257.101562 C 112.378906 268.867188 89.957031 265.726562 77.320312 250.375 C 63.605469 233.722656 52.058594 215.300781 52.058594 215.300781 C 62.746094 259.34375 79.269531 292.386719 99.96875 312.9375 " fill-opacity="1" fill-rule="nonzero"/><g clip-path="url(#cac0048e59)"><path fill="#ed1c24" d="M 108.871094 320.277344 C 100.289062 314.039062 88.277344 315.945312 82.039062 324.53125 C 75.804688 333.117188 77.707031 345.136719 86.289062 351.375 C 94.871094 357.613281 106.886719 355.710938 113.121094 347.121094 C 119.355469 338.535156 117.453125 326.519531 108.871094 320.277344 " fill-opacity="1" fill-rule="nonzero"/></g><path fill="#2c3892" d="M 267.746094 321.578125 C 264.417969 309.597656 265.039062 294.660156 265.039062 294.660156 C 270.804688 300.609375 281.179688 305.488281 287.484375 308.09375 C 292.800781 303.28125 297.320312 297.933594 300.960938 292.039062 C 321.949219 258.078125 264.730469 236.160156 264.730469 236.160156 C 279.042969 249.691406 281.441406 260.980469 281.542969 266.707031 C 281.574219 268.4375 279.527344 269.402344 278.222656 268.261719 C 249.488281 243.21875 232.417969 209.625 232.417969 209.625 C 216.46875 237.710938 218.148438 261.183594 223.457031 277.265625 C 229.6875 296.152344 219.769531 316.511719 201.277344 323.796875 C 181.207031 331.699219 160.128906 336.992188 160.128906 336.992188 C 205.300781 340.433594 241.8125 334.921875 267.746094 321.578125 " fill-opacity="1" fill-rule="nonzero"/><path fill="#2c3892" d="M 277.472656 315.375 C 268.890625 321.613281 266.988281 333.632812 273.222656 342.21875 C 279.457031 350.804688 291.472656 352.710938 300.054688 346.472656 C 308.636719 340.234375 310.539062 328.214844 304.304688 319.625 C 298.066406 311.039062 286.054688 309.136719 277.472656 315.375 " fill-opacity="1" fill-rule="nonzero"/><path fill="#f68712" d="M 327.800781 164.601562 C 315.386719 164.0625 301.382812 158.855469 301.382812 158.855469 C 308.816406 155.207031 316.660156 146.84375 321.085938 141.648438 C 318.15625 135.101562 314.464844 129.152344 309.988281 123.863281 C 284.191406 93.398438 245.675781 141.070312 245.675781 141.070312 C 262.960938 131.632812 274.429688 132.839844 279.90625 134.511719 C 281.5625 135.019531 281.847656 137.265625 280.359375 138.15625 C 247.679688 157.753906 210.46875 163.617188 210.46875 163.617188 C 232.234375 187.476562 255.070312 193.128906 271.996094 193.050781 C 291.871094 192.957031 308.164062 208.683594 309.371094 228.535156 C 310.679688 250.070312 309.199219 271.765625 309.199219 271.765625 C 326.429688 229.847656 332.472656 193.398438 327.800781 164.601562 " fill-opacity="1" fill-rule="nonzero"/><g clip-path="url(#25e17050e9)"><path fill="#f68712" d="M 324.910156 153.425781 C 328.191406 163.523438 339.027344 169.046875 349.117188 165.765625 C 359.207031 162.484375 364.726562 151.644531 361.449219 141.546875 C 358.171875 131.453125 347.335938 125.929688 337.242188 129.207031 C 327.15625 132.488281 321.632812 143.332031 324.910156 153.425781 " fill-opacity="1" fill-rule="nonzero"/></g><path fill="#00adef" d="M 197.140625 58.945312 C 192.792969 70.59375 183.519531 82.308594 183.519531 82.308594 C 182.347656 74.105469 176.820312 64.058594 173.25 58.242188 C 166.125 59.007812 159.324219 60.679688 152.917969 63.304688 C 115.984375 78.4375 149.398438 129.820312 149.398438 129.820312 C 145.769531 110.457031 150.460938 99.914062 153.742188 95.21875 C 154.738281 93.800781 156.957031 94.226562 157.347656 95.914062 C 165.878906 133.070312 159.953125 170.289062 159.953125 170.289062 C 189.355469 156.949219 201.789062 136.96875 206.941406 120.835938 C 212.996094 101.894531 232.980469 91.253906 252.21875 96.238281 C 273.097656 101.648438 293.261719 109.761719 293.261719 109.761719 C 258.738281 80.414062 225.960938 63.398438 197.140625 58.945312 " fill-opacity="1" fill-rule="nonzero"/><g clip-path="url(#7ccab1814a)"><path fill="#00adef" d="M 185.628906 58.242188 C 196.238281 58.242188 204.835938 49.636719 204.835938 39.023438 C 204.835938 28.40625 196.238281 19.800781 185.628906 19.800781 C 175.019531 19.800781 166.417969 28.40625 166.417969 39.023438 C 166.417969 49.636719 175.019531 58.242188 185.628906 58.242188 " fill-opacity="1" fill-rule="nonzero"/></g></svg>